<svg width="299" height="242" viewBox="0 0 299 242" fill="none" xmlns="http://www.w3.org/2000/svg">
<g filter="url(#filter0_f_1_8)">
<circle cx="43.5" cy="198.5" r="39.5" fill="#E932E9"/>
<circle cx="43.5" cy="198.5" r="37" stroke="#2B0B7B" stroke-width="5"/>
</g>
<g filter="url(#filter1_f_1_8)">
<rect x="69" y="106" width="226" height="53" fill="#47FF09"/>
<rect x="71.5" y="108.5" width="221" height="48" stroke="#1F3300" stroke-width="5"/>
</g>
<g filter="url(#filter2_f_1_8)">
<path d="M123.5 79L192.349 198.25H54.651L123.5 79Z" fill="url(#paint0_linear_1_8)"/>
<path d="M58.9811 195.75L123.5 84L188.019 195.75H58.9811Z" stroke="#FF7B00" stroke-width="5"/>
</g>
<g filter="url(#filter3_df_1_8)">
<path d="M91.5 4L111.819 66.534L177.571 66.534L124.376 105.182L144.695 167.716L91.5 129.068L38.3054 167.716L58.624 105.182L5.42938 66.534L71.1815 66.534L91.5 4Z" fill="#01A5F7"/>
<path d="M91.5 12.0902L109.441 67.3065L110.002 69.034H111.819L169.876 69.034L122.907 103.16L121.437 104.227L121.998 105.955L139.939 161.171L92.9695 127.045L91.5 125.978L90.0305 127.045L43.0607 161.171L61.0016 105.955L61.5629 104.227L60.0934 103.16L13.1236 69.034L71.1815 69.034H72.9978L73.5591 67.3065L91.5 12.0902Z" stroke="#04415F" stroke-width="5"/>
</g>
<g filter="url(#filter4_f_1_8)">
<path d="M239.378 74.1307C230.994 72.1205 223.906 93.874 223.906 99.9763L221.737 88.489C221.737 88.489 222.73 74.1307 205.475 74.1307C186.616 74.1307 189.526 92.2814 191.314 99.9763C193.482 109.31 199.934 113.018 205.475 120.077L223.906 133L239.378 122.232C248.413 112.181 255.159 95.3093 253.833 88.489C251.786 83.5833 247.762 76.1409 239.378 74.1307Z" fill="#EE1A1A"/>
<path d="M239.378 74.1307C230.994 72.1205 223.906 93.874 223.906 99.9763L221.737 88.489C221.737 88.489 222.73 74.1307 205.475 74.1307C186.616 74.1307 189.526 92.2814 191.314 99.9763C193.482 109.31 199.934 113.018 205.475 120.077L223.906 133L239.378 122.232C248.413 112.181 255.159 95.3093 253.833 88.489C251.786 83.5833 247.762 76.1409 239.378 74.1307Z" stroke="#3B0404" stroke-width="7"/>
</g>
<defs>
<filter id="filter0_f_1_8" x="0" y="155" width="87" height="87" filterUnits="userSpaceOnUse" color-interpolation-filters="sRGB">
<feFlood flood-opacity="0" result="BackgroundImageFix"/>
<feBlend mode="normal" in="SourceGraphic" in2="BackgroundImageFix" result="shape"/>
<feGaussianBlur stdDeviation="2" result="effect1_foregroundBlur_1_8"/>
</filter>
<filter id="filter1_f_1_8" x="65" y="102" width="234" height="61" filterUnits="userSpaceOnUse" color-interpolation-filters="sRGB">
<feFlood flood-opacity="0" result="BackgroundImageFix"/>
<feBlend mode="normal" in="SourceGraphic" in2="BackgroundImageFix" result="shape"/>
<feGaussianBlur stdDeviation="2" result="effect1_foregroundBlur_1_8"/>
</filter>
<filter id="filter2_f_1_8" x="50.651" y="75" width="145.698" height="127.25" filterUnits="userSpaceOnUse" color-interpolation-filters="sRGB">
<feFlood flood-opacity="0" result="BackgroundImageFix"/>
<feBlend mode="normal" in="SourceGraphic" in2="BackgroundImageFix" result="shape"/>
<feGaussianBlur stdDeviation="2" result="effect1_foregroundBlur_1_8"/>
</filter>
<filter id="filter3_df_1_8" x="1.42938" y="0" width="180.141" height="175.716" filterUnits="userSpaceOnUse" color-interpolation-filters="sRGB">
<feFlood flood-opacity="0" result="BackgroundImageFix"/>
<feColorMatrix in="SourceAlpha" type="matrix" values="0 0 0 0 0 0 0 0 0 0 0 0 0 0 0 0 0 0 127 0" result="hardAlpha"/>
<feOffset dy="4"/>
<feGaussianBlur stdDeviation="2"/>
<feComposite in2="hardAlpha" operator="out"/>
<feColorMatrix type="matrix" values="0 0 0 0 0 0 0 0 0 0 0 0 0 0 0 0 0 0 0.25 0"/>
<feBlend mode="normal" in2="BackgroundImageFix" result="effect1_dropShadow_1_8"/>
<feBlend mode="normal" in="SourceGraphic" in2="effect1_dropShadow_1_8" result="shape"/>
<feGaussianBlur stdDeviation="2" result="effect2_foregroundBlur_1_8"/>
</filter>
<filter id="filter4_f_1_8" x="182.501" y="66.4955" width="78.9985" height="74.7739" filterUnits="userSpaceOnUse" color-interpolation-filters="sRGB">
<feFlood flood-opacity="0" result="BackgroundImageFix"/>
<feBlend mode="normal" in="SourceGraphic" in2="BackgroundImageFix" result="shape"/>
<feGaussianBlur stdDeviation="2" result="effect1_foregroundBlur_1_8"/>
</filter>
<linearGradient id="paint0_linear_1_8" x1="123.5" y1="79" x2="123.5" y2="238" gradientUnits="userSpaceOnUse">
<stop stop-color="#FFB4B4"/>
<stop offset="1" stop-color="#AAF300"/>
</linearGradient>
</defs>
</svg>
